<svg id="Layer_3" height="512" viewBox="0 0 64 64" width="512" xmlns="http://www.w3.org/2000/svg" data-name="Layer 3"><path d="m62.316 9.051-5.428-1.809-.9-5.407a1 1 0 0 0 -1.767-.46l-3.497 4.369-5.277-2.639a1 1 0 0 0 -1.3 1.41l2.642 4.4-3.566 4.457a1 1 0 0 0 1.055 1.586l5.336-1.524-.065.262a4.771 4.771 0 0 0 1.248 4.508 1.125 1.125 0 0 1 0 1.586 1.148 1.148 0 0 1 -1.586 0 4.539 4.539 0 0 0 -6.414 0l-.797.796-3.586-3.586a3.5 3.5 0 0 0 -4.828 0l-3.26 3.259a22.01 22.01 0 1 0 13.415 13.414l3.259-3.258a3.415 3.415 0 0 0 0-4.829l-3.586-3.586.793-.793a2.6 2.6 0 0 1 3.586 0 3.194 3.194 0 0 0 4.414 0 3.125 3.125 0 0 0 0-4.414 2.763 2.763 0 0 1 -.723-2.608l.058-.229 4.751 4.751a1 1 0 0 0 1.693-.872l-.859-5.156 5.189-1.73a1 1 0 0 0 0-1.9zm-39.316 51.949a20 20 0 1 1 20-20 20.023 20.023 0 0 1 -20 20zm22.586-34a1.415 1.415 0 0 1 0 2l-2.669 2.669a22.135 22.135 0 0 0 -10.586-10.586l2.669-2.668a1.447 1.447 0 0 1 2 0zm10.1-15.949a1 1 0 0 0 -.67 1.114l.487 2.921-3.794-3.793a1 1 0 0 0 -.709-.293.981.981 0 0 0 -.274.039l-3.988 1.139 2.043-2.553a1 1 0 0 0 .076-1.14l-1.233-2.055 2.929 1.47a1 1 0 0 0 1.228-.27l2.6-3.251.633 3.791a1 1 0 0 0 .67.784l3.154 1.046z"/><path d="m5 41h2a16.019 16.019 0 0 1 16-16v-2a18.021 18.021 0 0 0 -18 18z"/></svg>